REM GENRE Neoclassical
REM DATE 2019
REM DISCID 70112908
REM COMMENT "ExactAudioCopy v1.5"
PERFORMER "Nachtreich"
TITLE "Sturmgang"
REM COMPOSER ""
FILE "01 Im Sturmwind.wav" WAVE
  TRACK 01 AUDIO
    TITLE "Im Sturmwind"
    PERFORMER "Nachtreich"
    REM COMPOSER ""
    INDEX 01 00:00:00
FILE "02 In die Ferne.wav" WAVE
  TRACK 02 AUDIO
    TITLE "In die Ferne"
    PERFORMER "Nachtreich"
    REM COMPOSER ""
    INDEX 01 00:00:00
FILE "03 Abschied (Ein letzter Gruß...).wav" WAVE
  TRACK 03 AUDIO
    TITLE "Abschied (Ein letzter Gruß...)"
    PERFORMER "Nachtreich"
    REM COMPOSER ""
    INDEX 01 00:00:00
FILE "04 Der verlorene Weg.wav" WAVE
  TRACK 04 AUDIO
    TITLE "Der verlorene Weg"
    PERFORMER "Nachtreich"
    REM COMPOSER ""
    INDEX 01 00:00:00
FILE "05 Vom Sturm getrieben.wav" WAVE
  TRACK 05 AUDIO
    TITLE "Vom Sturm getrieben"
    PERFORMER "Nachtreich"
    REM COMPOSER ""
    INDEX 01 00:00:00
FILE "06 Erinnerungen.wav" WAVE
  TRACK 06 AUDIO
    TITLE "Erinnerungen"
    PERFORMER "Nachtreich"
    REM COMPOSER ""
    INDEX 01 00:00:00
FILE "07 Abenddämmerung.wav" WAVE
  TRACK 07 AUDIO
    TITLE "Abenddämmerung"
    PERFORMER "Nachtreich"
    REM COMPOSER ""
    INDEX 01 00:00:00
FILE "08 Lust der Sturmnacht.wav" WAVE
  TRACK 08 AUDIO
    TITLE "Lust der Sturmnacht"
    PERFORMER "Nachtreich"
    REM COMPOSER ""
    INDEX 01 00:00:00
